<?xml version="1.0"?>
<svg xmlns="http://www.w3.org/2000/svg" id="Layer_1" data-name="Layer 1" viewBox="0 0 512 512" width="512" height="512"><title>Gifts sales ads</title><path d="M86,234.541h16.222V397.6a37.508,37.508,0,0,0,37.467,37.466H372.311A37.508,37.508,0,0,0,409.778,397.6V234.541H426a6,6,0,0,0,6-6V184.626a37.509,37.509,0,0,0-37.467-37.467H354.3l9.445-9.7A35.458,35.458,0,0,0,313.6,87.317l-56.742,56.742-42.342-42.343a35.455,35.455,0,0,0-54.088,45.443H117.467A37.509,37.509,0,0,0,80,184.626v43.915A6,6,0,0,0,86,234.541ZM397.778,397.6a25.5,25.5,0,0,1-25.467,25.466H139.689A25.5,25.5,0,0,1,114.222,397.6V234.541H397.778ZM256.133,159.159c.034,0,.067.009.1.009s.068-.009.1-.009H291v63.382H223V159.159ZM420,184.626v37.915H303V159.159h91.533A25.5,25.5,0,0,1,420,184.626ZM322.085,95.8a23.459,23.459,0,1,1,33.121,33.231l-17.66,18.125H270.729ZM172.856,143.377A23.459,23.459,0,1,1,206.032,110.2l36.957,36.957H176.638ZM92,184.626a25.5,25.5,0,0,1,25.467-25.467H211v63.382H92Z"/><path d="M186.49,348.585l-1.2,24.139a6,6,0,0,0,4.425,6.09l23.329,6.315,13.215,20.236a6,6,0,0,0,7.159,2.326l22.586-8.6,22.586,8.6a6,6,0,0,0,7.159-2.326l13.215-20.236,23.329-6.315a6,6,0,0,0,4.425-6.09l-1.2-24.139,15.162-18.821a6,6,0,0,0,0-7.528L325.51,303.415l1.2-24.139a6,6,0,0,0-4.425-6.09l-23.329-6.315-13.215-20.236a6,6,0,0,0-7.159-2.326L256,252.913l-22.586-8.6a6,6,0,0,0-7.159,2.326L213.04,266.871l-23.329,6.315a6,6,0,0,0-4.425,6.09l1.2,24.139-15.162,18.821a6,6,0,0,0,0,7.528Zm10.779-39.422a6,6,0,0,0,1.32-4.063l-1.077-21.594,20.87-5.649a6,6,0,0,0,3.456-2.511l11.821-18.1,20.205,7.7a5.991,5.991,0,0,0,4.272,0l20.2-7.7,11.821,18.1a6,6,0,0,0,3.456,2.511l20.87,5.649L313.411,305.1a6,6,0,0,0,1.32,4.063L328.3,326l-13.564,16.837a6,6,0,0,0-1.32,4.063l1.077,21.594-20.87,5.649a6,6,0,0,0-3.456,2.511l-11.821,18.1-20.2-7.7a6,6,0,0,0-4.272,0l-20.205,7.7-11.821-18.1a6,6,0,0,0-3.456-2.511l-20.87-5.649,1.077-21.594a6,6,0,0,0-1.32-4.063L183.705,326Z"/><path d="M231.812,318.806a19.744,19.744,0,1,0-19.745-19.744A19.766,19.766,0,0,0,231.812,318.806Zm0-27.487a7.744,7.744,0,1,1-7.745,7.743A7.752,7.752,0,0,1,231.812,291.319Z"/><path d="M259.346,354.037a19.744,19.744,0,1,0,19.743-19.744A19.765,19.765,0,0,0,259.346,354.037Zm27.487,0a7.744,7.744,0,1,1-7.744-7.744A7.752,7.752,0,0,1,286.833,354.037Z"/><path d="M231.794,363.116a6,6,0,0,0,8.3-1.748l44.017-67.493a6,6,0,1,0-10.051-6.556l-44.017,67.493A6,6,0,0,0,231.794,363.116Z"/></svg>
